<?xml version="1.0" encoding="UTF-8"?>
<svg width="256" height="256" version="1.1" viewBox="0 0 6.35 6.35" xmlns="http://www.w3.org/2000/svg">
 <g transform="matrix(.26458 0 0 .26458 -191.98 -15.014)">
  <path d="m729.68 71.466c-0.12657-0.0765-0.28005-0.20055-0.44185-0.35848-0.71703-0.69988-1.5973-2.0649-1.0238-2.9025 1.1663-1.7033 6.2114-2.7273 7.4681-2.8747 1.2824-0.15043 2.5646-0.10984 3.6233 0.034m3.7924 1.4706c0.10093 0.10184 0.239 0.26285 0.3064 0.36701 0.18968 0.29317 0.28371 0.71692 0.26322 1.198m-3.3124 4.1467c-1.3478 0.79344-3.1804 1.6131-4.7568 1.6796-2.3016 0.09703-4.3765-1.7011-4.3765-1.7011" fill="none" stroke="#000" stroke-width=".32077"/>
  <circle cx="730.5" cy="71.922" r=".95324" fill="#c0c0c0"/>
  <g transform="matrix(.092971 0 0 .092971 629.54 51.224)" fill="none" stroke="#000">
   <path d="m1226.5 174.54c2.1389-15.219 34.954-31.088 39.71-27.139 3.752 3.1151-3.615 11.517-10.7 16.695-8.1251 5.938-30.756 10.466-30.756 10.466" stroke-width="4.5157"/>
   <path d="m1225.3 175.87c12.844-8.4392 46.393 9.1465 46.567 15.326 0.1367 4.8747-11.038 4.8871-19.604 2.9831-9.8238-2.1837-25.247-17.41-25.247-17.41" stroke-width="4.5157"/>
   <rect transform="rotate(-27.941)" x="1049.8" y="723" width="5.5947" height="2.6558" ry=".070564" stroke-width="2.9869"/>
   <rect transform="rotate(31.729)" x="1183.1" y="-506.07" width="5.5947" height="2.6558" ry=".070564" stroke-width="2.9869"/>
  </g>
  <path d="m740.28 72.593c1.1212-0.69599 2.0805-1.3754 2.5104-1.9404 0.4257-0.55954 0.6075-0.95991 0.70822-1.2889 0.12297-0.4016 0.1717-0.99864 0.1717-0.99864" fill="none" stroke="#ffd700" stroke-width=".34295"/>
  <path d="m743.12 66.857c-0.33055-0.313-0.63782-0.49245-0.94194-0.64842-0.32559-0.16699-0.6467-0.3028-0.96215-0.4131-0.47596-0.16643-0.8209-0.24036-1.1908-0.3132-0.27208-0.05358-0.60829-0.13058-0.762-0.12113" fill="none" stroke="#ffd700" stroke-width=".33603"/>
  <g transform="matrix(.092971 0 0 .092971 629.54 51.224)" fill="none" stroke="#ffd700" stroke-linecap="round">
   <g stroke-width=".75">
    <path d="m1074.8 214.26 0.5791 3.9469" style="paint-order:stroke fill markers"/>
    <path d="m1073.1 212.7 0.3278 3.9814" style="paint-order:stroke fill markers"/>
    <path d="m1071.2 210.74 0.3143 4.1849" style="paint-order:stroke fill markers"/>
    <path d="m1069.5 208.76 0.067 4.2316" style="paint-order:stroke fill markers"/>
    <path d="m1067.8 206.63-0.022 4.2648" style="paint-order:stroke fill markers"/>
    <path d="m1093.5 230.67 1.711-2.0391" style="paint-order:stroke fill markers"/>
    <path d="m1095.2 232.06 1.711-2.0391" style="paint-order:stroke fill markers"/>
    <path d="m1097.2 233.48 1.711-2.0391" style="paint-order:stroke fill markers"/>
    <path d="m1099.2 234.89 1.711-2.0391" style="paint-order:stroke fill markers"/>
   </g>
   <path d="m1101.3 236.28 1.7174-2.0565" stroke-width=".75462" style="paint-order:stroke fill markers"/>
  </g>
 </g>
</svg>
