<svg id="dog-svg" xmlns="http://www.w3.org/2000/svg" >
    <defs>
        <rect x="642.31604" y="296.45356" width="919.00603" height="19.763571" id="rect6" />
    </defs>
    <path className = "table" d = "M -10.9874773, 1100.8837, 3200.49, 1038.9588" stroke = "#3e2723" stroke-width="20"/>
    <g id="head" label="Head" stroke-linejoin="round" stroke-linecap="round" fill = "none" stroke = "#5a4832" stroke-width="20">
        <path className="head"
            d="m 349.25338,3949.0324 c 48.84483,-195.0353 115.29982,-584.2071 175.40441,-732.6676 76.85023,-189.8229 204.59327,-358.3928 296.82835,-481.2302 204.95556,-272.9567 712.62456,-351.2906 949.84286,-375.6732 368.1352,-37.839 723.051,162.3541 952.2592,366.6137 251.3422,223.9844 352.5413,483.8097 352.5413,483.8097 M 239.72108,4095.3824 c 4.3887,-3.7718 1.347,-10.8405 5.04417,-15.8375 19.73251,-26.6698 44.61124,-63.7245 79.72313,-102.1643 71.58689,-78.3718 166.40538,-162.0573 213.28523,-197.214 473.22449,-354.8861 788.21739,-555.896 1157.57919,-607.054 757.6638,-104.9394 1385.2937,238.5738 1385.2937,238.5738"/>
    </g>
    <g id="nose" label="nose" stroke = "#593a0f" fill = "none" stroke-width="20" stroke-linecap="round" stroke-linejoin="round">
        <path className="nose"
            d="m 2101.4838,2541.6949 c -43.6717,134.5089 -475.1484,216.6118 -475.1484,216.6118 m -468.161,-47.1655 c 146.737,94.331 496.1109,41.9249 496.1109,41.9249 m 445.4517,-207.8775 c -27.95,-125.7746 -305.7022,-143.2432 -305.7022,-143.2432 m -635.8604,305.7021 c 40.178,-310.9428 637.6073,-303.9553 637.6073,-303.9553"/>
    </g>
    <g id="eyes">
        <ellipse className= "right-eye" fill = "black" stroke="#000000" stroke-width="10" 
            id="path14-8" ry="89.975288" rx="104.89369" cy="1794.7389" cx="4795.1504"
            transform="matrix(0.82026396,0.57198517,-0.92831558,0.37179319,0,0)" />
        <ellipse className = "left-eye"
            fill = "black" stroke="#000000" stroke-width="10" 
            id="path14" ry="104.64685" rx="119.27025" cy="4752.7095" cx="3858.7837"
            transform="matrix(0.99680569,-0.07986495,-0.5664104,0.82412333,0,0)"/>
    </g>
    
</svg>